<?xml version="1.0" encoding="UTF-8"?>
<svg id="Layer_2" data-name="Layer 2" xmlns="http://www.w3.org/2000/svg" viewBox="0 0 216 13.83">
  <defs>
    <style>
      .cls-1 {
        fill: #2c8ece;
      }

      .cls-1, .cls-2, .cls-3 {
        stroke-width: 0px;
      }

      .cls-2 {
        fill: #ebab21;
      }

      .cls-3 {
        fill: #fff;
      }
    </style>
  </defs>
  <g id="Layer_1-2" data-name="Layer 1">
    <g>
      <g>
        <path class="cls-3" d="M3.45,6.27c.93-.89,2.03-2.15,3.29-3.88.37-.49,1.24-1.82,1.37-2.15.3.04.7.07,1,.07,1.33,0,2.42-.05,2.87-.11-.46.35-1.52,1.24-2.59,2.36-1.24,1.28-2.62,2.83-3.08,3.41.67.98,2.66,3.41,4.17,5.04,1.68,1.82,2.21,2.19,2.61,2.36-.19.14-1.15.19-1.73.19-2.01,0-2.91-.14-4.27-1.82-1.24-1.54-2.71-3.52-3.62-4.92v1.58c0,1.92.09,4.5.23,5.08-.23-.02-.72-.05-1.35-.05-.77,0-1.91.04-2.26.11.11-.84.19-2.96.19-5.13v-3.08C.26,2.82.19.95,0,.25c.26.04.95.05,1.49.05,1.17,0,1.73-.04,2.15-.09-.09.72-.19,2.63-.19,5.11v.95Z"/>
        <path class="cls-3" d="M14.84,5.32c0-2.91-.12-4.5-.3-5.08.42.05,1.19.05,1.89.05h4.36c.7,0,1.58,0,1.91-.12-.07.46-.19,1.47-.19,2.71-.35-.23-.84-.35-1.96-.46-.63-.05-1.82-.09-2.45-.09-.04,0-.07.04-.07.07v2.96s.04.09.07.09c.49.02,1.87,0,2.55-.02,1.23-.04,1.47-.09,1.73-.17-.12.75-.19,2.06-.17,2.71-.39-.23-.74-.35-1.58-.42-.54-.05-2.01-.07-2.54-.07-.04,0-.07.05-.07.09v.53c0,2.62.04,3.04.12,3.13.05.05.25.11.42.12.52.05.95.07,1.68.07,1.26,0,2.36-.12,3.08-.46-.23.77-.46,1.87-.51,2.5-.09.05-.4.07-1.1.07-2.29,0-3.73-.12-5.06-.12-1,0-1.71.04-2.05.07.07-.68.23-2.4.23-5.09v-3.08Z"/>
        <path class="cls-3" d="M27.39,13.42c-.26,0-1.54.05-1.73.09.19-1.79.38-9.63.38-12.58,0-.86.07-.93.18-.93.07,0,.25.05.65.4,2.29,2.03,6.06,5.11,8.56,7.16,0-.75-.05-4.6-.32-7.32.23.04.93.05,1.31.05.72,0,1.63-.05,1.79-.09-.17,1.12-.38,5.53-.37,10.75v1.89c0,.86-.07.98-.21.98-.19,0-.74-.47-2.28-1.8-2.26-1.96-4.17-3.52-6.88-5.83.03,3.15.12,5.9.37,7.28-.46-.05-1-.05-1.45-.05Z"/>
        <path class="cls-3" d="M40.49.09c.56.16,1.49.21,3.13.21h6.04c1.33,0,2.64-.07,3.06-.19-.19.94-.28,1.98-.3,2.85-.4-.3-1.05-.44-1.98-.53-.61-.05-1.14-.09-2.54-.09v6.06c0,1.92.12,4.15.21,5.08-.28-.04-.77-.05-1.4-.05-.96,0-1.66.04-2.19.09.1-.84.19-2.94.19-5.11V2.35c-.7,0-1.14,0-2.21.05-1.42.09-1.82.18-2.5.4.17-.6.4-2,.47-2.71Z"/>
        <path class="cls-3" d="M58.23,9.73c.7.86,2.03,1.85,3.52,1.85,1.1,0,1.63-.54,1.63-1.28,0-.58-.21-1.03-1.45-1.82l-.91-.58c-2.1-1.31-2.55-2.62-2.55-3.99,0-2.14,1.71-3.92,4.51-3.92.79,0,1.4.07,1.89.14.82.12,1.26.17,1.4.17-.05.23-.19,1.71-.19,3.12-.37-.42-1.3-1.38-3.03-1.38-1.07,0-1.56.63-1.56,1.26,0,.56.16,1,1.19,1.66l.93.59c2.24,1.45,2.99,2.4,2.99,4.03,0,1.21-.61,2.61-1.92,3.38-1.03.61-2.31.75-3.06.75-1.21,0-2.82-.28-3.59-.79.09-.38.23-2.08.21-3.2Z"/>
        <path class="cls-3" d="M68.16.09c.56.16,1.49.21,3.13.21h6.04c1.33,0,2.64-.07,3.06-.19-.19.94-.28,1.98-.3,2.85-.4-.3-1.05-.44-1.98-.53-.61-.05-1.14-.09-2.54-.09v6.06c0,1.92.12,4.15.21,5.08-.28-.04-.77-.05-1.4-.05-.96,0-1.66.04-2.19.09.1-.84.19-2.94.19-5.11V2.35c-.7,0-1.14,0-2.21.05-1.42.09-1.82.18-2.5.4.17-.6.4-2,.47-2.71Z"/>
        <path class="cls-3" d="M83.26,10.64c-.05,0-.07.02-.09.05-.42,1.07-.72,2-.91,2.78-.33-.04-.7-.05-1.44-.05-.86,0-1.54.05-1.82.09.51-.93,1.31-2.52,2.47-4.95l3.54-7.56c.38-.82.51-1,.67-1,.1,0,.26.16.65,1,.3.61,2.13,4.48,3.69,7.91.82,1.82,1.82,3.76,2.43,4.57-.7-.04-1.35-.05-1.61-.05-.91,0-1.94.04-2.35.09-.33-.81-.84-2.08-1.19-2.82-.02-.03-.03-.05-.09-.05h-3.96ZM86.46,8.61c.05,0,.07-.04.05-.09l-1.33-3.27-1.29,3.27c-.02.05-.02.09.04.09h2.54Z"/>
        <path class="cls-3" d="M91.54.09c.56.16,1.49.21,3.13.21h6.04c1.33,0,2.64-.07,3.06-.19-.19.94-.28,1.98-.3,2.85-.4-.3-1.05-.44-1.98-.53-.61-.05-1.14-.09-2.54-.09v6.06c0,1.92.12,4.15.21,5.08-.28-.04-.77-.05-1.4-.05-.96,0-1.66.04-2.19.09.11-.84.19-2.94.19-5.11V2.35c-.7,0-1.14,0-2.21.05-1.42.09-1.82.18-2.5.4.18-.6.4-2,.47-2.71Z"/>
        <path class="cls-3" d="M106.05,5.32c0-2.91-.12-4.5-.3-5.08.42.05,1.19.05,1.89.05h4.36c.7,0,1.58,0,1.91-.12-.07.46-.19,1.47-.19,2.71-.35-.23-.84-.35-1.96-.46-.63-.05-1.82-.09-2.45-.09-.04,0-.07.04-.07.07v2.96s.04.09.07.09c.49.02,1.87,0,2.55-.02,1.23-.04,1.47-.09,1.73-.17-.12.75-.19,2.06-.17,2.71-.39-.23-.74-.35-1.58-.42-.54-.05-2.01-.07-2.54-.07-.04,0-.07.05-.07.09v.53c0,2.62.04,3.04.12,3.13.05.05.25.11.42.12.52.05.95.07,1.68.07,1.26,0,2.36-.12,3.08-.46-.23.77-.46,1.87-.51,2.5-.09.05-.4.07-1.1.07-2.29,0-3.73-.12-5.06-.12-1,0-1.71.04-2.05.07.07-.68.23-2.4.23-5.09v-3.08Z"/>
        <path class="cls-3" d="M114.18,12.68c0-.49.35-.84.83-.84s.83.34.83.84-.36.83-.83.83-.83-.36-.83-.83ZM115.7,12.67c0-.42-.29-.71-.69-.71s-.68.28-.68.71.29.71.69.71.68-.3.68-.71ZM114.73,12.56c0-.23,0-.29-.01-.34h.06s.13,0,.21,0c.15,0,.34.06.34.27,0,.08-.05.17-.16.24l.09.13c.08.11.17.2.22.23-.02,0-.06.01-.09.01-.11,0-.16-.03-.22-.11-.05-.07-.11-.16-.14-.22h-.15v.03c0,.08,0,.24.01.3-.02,0-.04,0-.08,0-.03,0-.06,0-.09,0,0-.08.01-.17.01-.33v-.19ZM114.87,12.62s.08.02.12.02.08,0,.11-.02c.04-.02.07-.06.07-.13,0-.11-.06-.16-.19-.16-.04,0-.07,0-.11,0v.28Z"/>
        <path class="cls-2" d="M135.16,9.6l-1.94-3.57c-.59-1.12-.77-1.77-.77-1.77h-.07s.09.63.09,1.86v6h-1.61V1.82h1.87l2.45,4.76c.4.79.53,1.26.53,1.26h.07s.1-.47.52-1.26l2.43-4.76h1.8v10.31h-1.63v-6c0-1.22.1-1.86.1-1.86h-.07s-.18.65-.79,1.77l-1.92,3.57h-1.07Z"/>
        <path class="cls-2" d="M150.63,9.31h-4.22l-.98,2.82h-1.68l3.76-10.31h2.12l3.73,10.31h-1.73l-1-2.82ZM146.86,7.98h3.29l-.79-2.31c-.58-1.61-.81-2.71-.81-2.71h-.07s-.25,1.08-.81,2.7l-.82,2.33Z"/>
        <path class="cls-2" d="M164.42,6.8v5.32h-1.28l-.21-1.33c-.42,1.02-1.65,1.54-2.84,1.54-2.64,0-4.48-1.84-4.48-5.32s1.94-5.41,4.81-5.41c1.96,0,3.22.82,3.87,2.49l-1.51.74c-.42-1.24-1.33-1.84-2.45-1.84-1.8,0-3.04,1.42-3.04,4.03,0,2.33.95,3.99,2.96,3.99,1.38,0,2.57-.65,2.57-2.03v-.77h-2.5v-1.4h4.1Z"/>
        <path class="cls-2" d="M174.33,9.31h-4.22l-.98,2.82h-1.68l3.76-10.31h2.12l3.73,10.31h-1.73l-1-2.82ZM170.57,7.98h3.29l-.79-2.31c-.58-1.61-.8-2.71-.8-2.71h-.07s-.25,1.08-.8,2.7l-.82,2.33Z"/>
        <path class="cls-2" d="M182.78,9.43c-.58.86-1,1.28-1,1.28v.07s.44-.05,1.51-.05h3.99v1.4h-7.54v-.96l4.43-6.65c.56-.86,1-1.28,1-1.28v-.07s-.46.05-1.5.05h-3.71v-1.4h7.25v1.08l-4.41,6.53Z"/>
        <path class="cls-2" d="M192.58,1.82v10.31h-1.61V1.82h1.61Z"/>
        <path class="cls-2" d="M202.57,7.71c.61.91,1.17,1.96,1.17,1.96h.07s-.09-1.1-.09-2.4V1.82h1.61v10.31h-1.59l-4.11-5.88c-.65-.93-1.19-2-1.19-2h-.07s.11,1.1.11,2.43v5.44h-1.61V1.82h1.64l4.06,5.9Z"/>
        <path class="cls-2" d="M216,12.12h-6.35V1.82h6.35v1.4h-4.74v3.04h4.2v1.4h-4.2v3.06h4.74v1.4Z"/>
      </g>
      <rect class="cls-1" x="122.53" y=".18" width="1.07" height="13.41"/>
    </g>
  </g>
</svg>